<?xml version="1.0" encoding="utf-8"?>
<!-- Generator: Adobe Illustrator 25.4.1, SVG Export Plug-In . SVG Version: 6.00 Build 0)  -->
<svg version="1.1" id="Layer_1" xmlns="http://www.w3.org/2000/svg" xmlns:xlink="http://www.w3.org/1999/xlink" x="0px" y="0px"
	 viewBox="0 0 1440 900" style="enable-background:new 0 0 1440 900;" xml:space="preserve">
<style type="text/css">
	.st0{fill:#7289DA;}
	.st1{fill-opacity:0;stroke:#000000;stroke-opacity:0;}
</style>
<g>
	<g>
		<g>
			<g>
				<path id="c1yTvaEcl4" class="st0" d="M150.1,984.6c13.6,23.8,48.4,22.5,60.1-2.4c4.4-9.4-5.6,11.8,0,0
					c11.4-24.2,42.3-31.7,63.5-15.3c19.2,14.9,24.8,19.1,41.3,31.9c26.9,20.8,66.2,8.9,77.1-23.3c3.8-11.1-4.4,13.2,0,0
					c7.9-23.5,39-28.4,53.8-8.5c11.1,14.9,9.3,12.5,20.4,27.5c16.5,22.2,50.4,20.4,64.5-3.5c6.6-11.2,6.5-11.1,15.5-26.4
					c7.1-12.1,25-10.8,30.3,2.2c6.1,14.9,4.1,9.9,8.3,20.2c10.2,24.9,43.2,30.2,60.7,9.7c7.3-8.6-7.7,8.9,0,0
					c19.1-22.3,53.8-21.9,72.4,0.8c11.6,14.2,0.7,0.8,9.8,12c23.2,28.4,67.7,24.3,85.5-7.7c5.3-9.6,2.9-5.2,12.8-23.2
					c6.1-11,21.8-11.4,28.5-0.7c7.9,12.7,7.6,12.3,13.2,21.4c12.4,20,41.1,21,54.8,1.8c9.4-13.2,12.7-17.8,23.1-32.3
					c9.4-13.1,29.9-9.1,33.6,6.6c3.1,13.2,0.4,1.5,2.8,12c4.6,19.5,30.6,23.4,40.8,6.2c6.9-11.7,3.1-5.3,10.9-18.5
					c10.6-17.9,36.5-17.9,47,0c7.8,13.3,0.4,0.7,6.4,10.8c14.3,24.2,49.6,23.5,62.7-1.4c5.2-9.9-6,11.4,0,0
					c10.4-19.6,38.8-18.1,47.2,2.4c4.4,10.9-2.3-5.7,2.4,5.8c6.2,15.2,28.2,13.6,32.1-2.4c2.7-11-0.5,2,2.5-10.3
					c3.6-14.9,23.9-17,30.5-3.1c6.1,12.9,0.4,0.8,5.4,11.4c9.6,20.3,38.7,19.6,47.3-1.2c4.3-10.4-1.5,3.6,3.7-9.1
					c7-17.1,30.8-18.2,39.4-1.9c6.9,13,5.9,11.1,12.8,24.1c8,15.2,30.4,13.1,35.5-3.3c4.8-15.4,4.1-13.2,8.5-27.6
					c5.6-18.1,30.3-20.2,38.9-3.4c7.8,15.1,3.7,7.1,10.5,20.4c10.7,20.7,41,18.6,48.6-3.4c8.4-24.1,126.3-51.1,159.8-147.6
					c-99.9,0-700.2-3-1801.1-9.1C56.5,929.1,148.6,981.9,150.1,984.6z"/>
			</g>
			<g>
				<g>
					<path id="c1yTvaEcl4_00000163760768496397041480000005207759753237558667_" class="st1" d="M150.1,984.6
						c13.6,23.8,48.4,22.5,60.1-2.4c4.4-9.4-5.6,11.8,0,0c11.4-24.2,42.3-31.7,63.5-15.3c19.2,14.9,24.8,19.1,41.3,31.9
						c26.9,20.8,66.2,8.9,77.1-23.3c3.8-11.1-4.4,13.2,0,0c7.9-23.5,39-28.4,53.8-8.5c11.1,14.9,9.3,12.5,20.4,27.5
						c16.5,22.2,50.4,20.4,64.5-3.5c6.6-11.2,6.5-11.1,15.5-26.4c7.1-12.1,25-10.8,30.3,2.2c6.1,14.9,4.1,9.9,8.3,20.2
						c10.2,24.9,43.2,30.2,60.7,9.7c7.3-8.6-7.7,8.9,0,0c19.1-22.3,53.8-21.9,72.4,0.8c11.6,14.2,0.7,0.8,9.8,12
						c23.2,28.4,67.7,24.3,85.5-7.7c5.3-9.6,2.9-5.2,12.8-23.2c6.1-11,21.8-11.4,28.5-0.7c7.9,12.7,7.6,12.3,13.2,21.4
						c12.4,20,41.1,21,54.8,1.8c9.4-13.2,12.7-17.8,23.1-32.3c9.4-13.1,29.9-9.1,33.6,6.6c3.1,13.2,0.4,1.5,2.8,12
						c4.6,19.5,30.6,23.4,40.8,6.2c6.9-11.7,3.1-5.3,10.9-18.5c10.6-17.9,36.5-17.9,47,0c7.8,13.3,0.4,0.7,6.4,10.8
						c14.3,24.2,49.6,23.5,62.7-1.4c5.2-9.9-6,11.4,0,0c10.4-19.6,38.8-18.1,47.2,2.4c4.4,10.9-2.3-5.7,2.4,5.8
						c6.2,15.2,28.2,13.6,32.1-2.4c2.7-11-0.5,2,2.5-10.3c3.6-14.9,23.9-17,30.5-3.1c6.1,12.9,0.4,0.8,5.4,11.4
						c9.6,20.3,38.7,19.6,47.3-1.2c4.3-10.4-1.5,3.6,3.7-9.1c7-17.1,30.8-18.2,39.4-1.9c6.9,13,5.9,11.1,12.8,24.1
						c8,15.2,30.4,13.1,35.5-3.3c4.8-15.4,4.1-13.2,8.5-27.6c5.6-18.1,30.3-20.2,38.9-3.4c7.8,15.1,3.7,7.1,10.5,20.4
						c10.7,20.7,41,18.6,48.6-3.4c8.4-24.1,126.3-51.1,159.8-147.6c-99.9,0-700.2-3-1801.1-9.1C56.5,929.1,148.6,981.9,150.1,984.6z
						"/>
				</g>
			</g>
		</g>
	</g>
</g>
</svg>
