<?xml version="1.0" standalone="no"?>
<!DOCTYPE svg PUBLIC "-//W3C//DTD SVG 20010904//EN"
 "http://www.w3.org/TR/2001/REC-SVG-20010904/DTD/svg10.dtd">
<svg version="1.0" xmlns="http://www.w3.org/2000/svg"
 width="1080.000000pt" height="1080.000000pt" viewBox="0 0 1080.000000 1080.000000"
 preserveAspectRatio="xMidYMid meet">
<metadata>
Created by potrace 1.14, written by Peter Selinger 2001-2017
</metadata>
<g transform="translate(0.000000,1080.000000) scale(0.100000,-0.100000)"
fill="#000000" stroke="none">
<path d="M5055 10789 c-335 -18 -724 -86 -1117 -193 -327 -90 -608 -198 -938
-362 -539 -268 -982 -585 -1401 -1003 -415 -415 -731 -844 -985 -1336 -232
-450 -374 -838 -483 -1320 -334 -1483 -17 -3056 866 -4299 298 -419 686 -825
1088 -1137 344 -268 750 -509 1155 -687 784 -345 1719 -505 2550 -437 1004 82
1914 406 2715 968 485 341 944 797 1290 1282 831 1166 1168 2626 929 4025
-111 651 -323 1242 -650 1811 -332 581 -826 1147 -1359 1560 -1045 810 -2318
1203 -3660 1128z m2521 -2333 c120 -32 231 -124 282 -233 l27 -58 0 -2500 0
-2500 -31 -65 c-39 -83 -113 -159 -195 -202 l-64 -33 -2175 -3 c-2164 -2
-2175 -2 -2235 18 -115 39 -212 136 -254 255 l-21 60 2 2485 3 2485 27 58 c50
107 162 201 277 233 71 19 4284 20 4357 0z m-3116 -5801 c0 -146 -113 -283
-260 -315 -36 -8 -122 -11 -250 -8 -234 4 -267 14 -354 109 -59 63 -83 118
-93 212 l-6 57 482 0 481 0 0 -55z m2836 -21 c-9 -99 -37 -171 -83 -216 -82
-78 -148 -91 -424 -86 -199 3 -205 4 -260 31 -110 53 -179 155 -187 275 l-5
72 483 0 483 0 -7 -76z"/>
<path d="M3450 7979 c-49 -20 -93 -63 -116 -114 l-24 -52 2 -2159 3 -2159 22
-41 c27 -51 72 -90 121 -104 26 -8 616 -10 1963 -8 l1925 3 42 27 c22 15 54
49 69 75 l28 48 0 2170 0 2170 -28 48 c-15 26 -47 60 -69 75 l-42 27 -1935 2
c-1259 1 -1945 -2 -1961 -8z m3864 -150 l26 -20 0 -2142 0 -2141 -22 -23 -21
-23 -1899 0 c-1885 0 -1898 0 -1918 20 -20 20 -20 33 -20 2164 l0 2145 26 20
27 21 1887 0 1887 0 27 -21z"/>
<path d="M5287 7128 c-675 -45 -1231 -561 -1343 -1248 -21 -128 -14 -398 15
-521 68 -296 192 -521 400 -730 256 -255 554 -395 921 -430 291 -28 644 57
895 214 287 179 508 458 620 782 54 157 69 255 69 455 1 116 -4 213 -13 260
-62 342 -246 661 -502 875 -197 164 -434 278 -679 325 -88 18 -266 26 -383 18z
m395 -596 c144 -70 197 -183 198 -414 l0 -88 30 0 c17 0 39 -9 50 -20 19 -19
20 -33 20 -383 0 -399 -3 -425 -62 -547 -41 -87 -167 -212 -258 -258 -112 -56
-262 -76 -382 -51 -206 43 -404 241 -447 447 -7 33 -11 191 -11 412 0 347 1
361 20 380 11 11 33 20 49 20 l28 0 6 133 c7 164 28 228 97 298 95 95 148 109
400 106 l195 -2 67 -33z"/>
<path d="M5185 6406 c-40 -18 -85 -63 -101 -103 -9 -21 -14 -74 -14 -153 l0
-120 331 0 331 0 -4 134 c-3 132 -3 135 -34 172 -64 79 -63 79 -282 81 -148 2
-204 -1 -227 -11z"/>
<path d="M5318 5766 c-89 -33 -121 -72 -121 -149 0 -95 34 -133 170 -190 52
-22 79 -39 81 -51 8 -41 -53 -47 -173 -16 -43 11 -80 20 -82 20 -10 0 -1 -139
10 -148 20 -16 113 -32 186 -32 118 0 193 35 230 107 18 36 14 134 -9 170 -22
36 -35 45 -145 94 -60 26 -80 40 -80 55 0 33 80 28 176 -11 12 -4 22 8 43 56
15 34 25 63 24 64 -2 1 -25 10 -53 19 -68 24 -209 31 -257 12z"/>
</g>
</svg>
